<?xml version="1.0" encoding="UTF-8"?>
<svg id="Layer_1" data-name="Layer 1" xmlns="http://www.w3.org/2000/svg" version="1.1" viewBox="0 0 443.73 217.3">
  <defs>
    <style>
      .cls-1 {
        fill: #510066;
      }

      .cls-1, .cls-2 {
        stroke-width: 0px;
      }

      .cls-2 {
        fill: #f25828;
      }
    </style>
  </defs>
  <ellipse class="cls-1" cx="163.74" cy="53.14" rx="53.43" ry="53.03"/>
  <ellipse class="cls-2" cx="277.31" cy="53.14" rx="53.43" ry="53.03"/>
  <path class="cls-1" d="M22.15,216.19L0,112.13h20.66l16.95,86.66,18.28-86.66h30.03l17.84,86.37,16.95-86.37h20.66l-22.45,104.06h-30.18l-17.84-90.38-18.58,90.38h-30.18Z"/>
  <path class="cls-2" d="M143.15,164.23c0-29.29,23.64-53.22,52.92-53.22s52.92,23.78,53.07,53.22c.15,29.28-23.78,53.07-53.07,53.07s-52.92-23.78-52.92-53.07ZM229.07,164.23c0-19.03-13.97-34.64-33-34.64s-33,15.61-33,34.64,13.97,34.34,33,34.34,33-15.31,33-34.34Z"/>
  <path class="cls-1" d="M258.51,216.19v-104.06h46.83c20.51,0,35.97,16.35,35.97,35.23,0,13.97-8.92,26.31-21.7,30.92l23.19,37.91h-22.74l-21.55-35.38h-19.92v35.38h-20.07ZM278.58,163.41h26.46c9.51,0,16.95-6.99,16.95-16.65s-6.99-16.65-16.65-16.65h-26.76v33.3Z"/>
  <path class="cls-1" d="M352.76,112.13h20.22v51.28l44.89-51.28h24.68l-42.81,48.01,44,56.04h-24.68l-32.41-41.18-13.68,15.31v25.87h-20.22v-104.06Z"/>
  <path class="cls-1" d="M0,53.22C0,23.93,23.78,0,53.07,0,74.62,0,92.02,12.34,100.34,31.22l-19.03,5.35c-5.35-11-15.91-17.54-28.24-17.54-19.03,0-33,15.16-33,34.19s13.97,34.04,33,34.04c13.97,0,26.16-8.18,30.62-23.04l-30.18.15-.3-16.95h49.95v7.43c0,29.88-21.41,51.43-50.1,51.43S0,82.5,0,53.22Z"/>
  <path class="cls-1" d="M338.93,105.32V.97h38.2c29.58,0,53.22,22.74,53.37,52.18.15,29.43-23.34,52.18-53.37,52.18h-38.2ZM359.15,86.59h17.99c20.22,0,33.74-14.57,33.74-33.45s-13.68-33.45-33.74-33.45h-17.99v66.89Z"/>
</svg>