<svg width="24" height="24" viewBox="0 0 24 24" fill="none" xmlns="http://www.w3.org/2000/svg">
<g clip-path="url(#clip0_1254_3979)">
<path d="M21.9325 5.6963C21.9202 5.89306 21.873 6.12454 21.8454 6.35847C21.7885 6.84102 21.6727 7.31801 21.6865 7.80768C21.7114 8.6842 22.0195 9.44876 22.6189 10.0896C22.9514 10.4452 23.2953 10.7905 23.6345 11.1399C24.1211 11.6412 24.122 12.3554 23.6361 12.8571C23.3131 13.1905 22.9895 13.5233 22.667 13.8571C22.1495 14.3927 21.8319 15.029 21.7204 15.7649C21.6643 16.1357 21.6796 16.5074 21.737 16.8784C21.8052 17.3191 21.8704 17.7603 21.9249 18.2028C22.0055 18.8569 21.563 19.427 20.9113 19.5347C20.3967 19.6197 19.8798 19.6983 19.371 19.8105C18.4097 20.0224 17.6659 20.5585 17.1622 21.4039C16.8931 21.8555 16.6616 22.3296 16.4154 22.7948C16.2035 23.1952 15.8757 23.4225 15.424 23.467C15.2251 23.4866 15.0334 23.4492 14.8549 23.3642C14.3822 23.1387 13.9156 22.9003 13.4406 22.6799C12.7827 22.3748 12.094 22.2911 11.3787 22.42C11.0622 22.477 10.7617 22.5773 10.4739 22.7185C10.0423 22.9299 9.61073 23.142 9.17826 23.3515C8.62025 23.6219 7.94562 23.4222 7.63957 22.8825C7.40008 22.46 7.18084 22.026 6.95158 21.5975C6.45523 20.6705 5.69846 20.0711 4.67794 19.8196C4.33205 19.7343 3.9757 19.6912 3.62492 19.6253C3.3812 19.5794 3.13302 19.5563 2.89442 19.4855C2.36468 19.3288 2.00366 18.7768 2.07622 18.229C2.14388 17.7191 2.2269 17.2114 2.28744 16.7006C2.39873 15.762 2.16792 14.9113 1.59522 14.1579C1.36129 13.85 1.07105 13.5932 0.807295 13.3121C0.642364 13.1364 0.46942 12.9682 0.306715 12.7906C-0.104165 12.3418 -0.10194 11.6454 0.315618 11.2005C0.67486 10.8176 1.05013 10.4495 1.40447 10.0624C2.03749 9.37085 2.33864 8.55065 2.31193 7.6127C2.30147 7.24434 2.2249 6.88331 2.17838 6.51917C2.14388 6.24785 2.09002 5.97808 2.07043 5.70565C2.02792 5.11648 2.44547 4.58919 3.03019 4.4808C3.51563 4.39065 4.00397 4.31498 4.48875 4.22127C5.59496 4.00693 6.41539 3.39929 6.9498 2.40725C7.1755 1.98836 7.39696 1.56746 7.61999 1.14724C7.90778 0.605033 8.59822 0.374219 9.15155 0.639533C9.60094 0.854989 10.0472 1.0769 10.4959 1.29391C11.0728 1.57281 11.6807 1.68053 12.3193 1.62311C12.7509 1.58438 13.1582 1.46463 13.5464 1.27455C13.9599 1.072 14.3786 0.879696 14.7868 0.666688C15.341 0.377558 16.0809 0.556956 16.4092 1.19309C16.6355 1.63157 16.8652 2.06849 17.1061 2.49896C17.5259 3.24927 18.1446 3.76944 18.9515 4.07058C19.2727 4.19055 19.609 4.23307 19.9417 4.29606C20.3001 4.36372 20.6613 4.41647 21.0177 4.49282C21.559 4.60878 21.9396 5.10224 21.9327 5.69652L21.9325 5.6963Z" fill="#510066"/>
<path d="M19.662 5.89608C19.1861 6.43962 18.7103 6.98293 18.2344 7.52647C17.8222 7.99745 17.4106 8.46931 16.9977 8.93985C16.5664 9.43152 16.133 9.92142 15.7021 10.4131C15.2309 10.9506 14.7619 11.4899 14.291 12.0275C13.942 12.4259 13.591 12.823 13.2417 13.2211C12.7972 13.728 12.3536 14.2359 11.9091 14.7429C11.535 15.17 11.1599 15.5963 10.7856 16.0234C10.3328 16.54 9.88056 17.0571 9.42784 17.5737C9.19747 17.8368 8.96554 18.0987 8.73673 18.3632C8.69533 18.411 8.67664 18.4039 8.64459 18.3547C8.17717 17.6367 7.70842 16.9195 7.23945 16.2026C6.8023 15.5344 6.36382 14.8669 5.9269 14.1987C5.58702 13.679 5.24848 13.1582 4.9086 12.6384C4.46723 11.9638 4.02496 11.2901 3.58337 10.6156C3.53262 10.5384 3.48343 10.4601 3.42578 10.3699C3.47653 10.3795 3.50591 10.3973 3.5344 10.4171C4.09908 10.8082 4.66376 11.1995 5.22845 11.5903C5.78089 11.9727 6.33333 12.3549 6.88577 12.7373C7.46937 13.1412 8.05319 13.545 8.63546 13.951C8.6891 13.9884 8.72471 13.991 8.77924 13.9505C9.4452 13.4531 10.1136 12.9585 10.7809 12.4624C11.6861 11.7893 12.5902 11.1151 13.4955 10.4423C14.2075 9.91318 14.9213 9.38612 15.6333 8.85682C16.4431 8.25497 17.2513 7.65134 18.061 7.04948C18.5878 6.65797 19.1162 6.26823 19.644 5.87783C19.6593 5.87449 19.6653 5.88072 19.662 5.89608Z" fill="#F15828"/>
<path d="M13.9523 13.8422C14.584 13.1048 15.205 12.3848 15.8184 11.6585C15.9026 11.5588 15.9856 11.5225 16.1131 11.5245C16.5721 11.5318 17.0313 11.5283 17.4904 11.5263C17.5448 11.526 17.5639 11.5363 17.5639 11.5959C17.5621 13.5135 17.5623 15.4312 17.5635 17.3487C17.5635 17.3946 17.547 17.4222 17.5134 17.4504C17.0682 17.821 16.5765 18.1175 16.0539 18.3634C15.1393 18.7939 14.1776 19.0361 13.1669 19.0824C12.0139 19.1354 10.9075 18.9215 9.8344 18.5103C9.82305 18.5059 9.81259 18.499 9.7959 18.4901C9.91609 18.3548 10.0336 18.2223 10.1514 18.0901C10.6132 17.5713 11.0759 17.0531 11.536 16.5327C11.5734 16.4904 11.6075 16.4802 11.66 16.4878C12.2541 16.5741 12.8503 16.6053 13.4486 16.547C13.8778 16.5051 14.2956 16.4188 14.6764 16.2027C14.8199 16.1213 14.8916 15.9984 14.8916 15.8338C14.8916 15.1973 14.8905 14.5605 14.8934 13.9239C14.8936 13.8562 14.8765 13.8395 14.8097 13.8406C14.5535 13.8449 14.2973 13.8424 14.0411 13.8424H13.9523V13.8422Z" fill="#FEFEFE"/>
<path d="M16.3503 7.23862C16.0296 7.47834 15.7191 7.71071 15.4084 7.94286C14.9187 8.30856 14.4288 8.67381 13.94 9.04062C13.9064 9.066 13.8775 9.07201 13.8361 9.06221C13.3086 8.93735 12.7744 8.86501 12.2313 8.87881C11.467 8.89817 10.7585 9.09003 10.1482 9.5717C9.70236 9.92337 9.38474 10.3739 9.15705 10.8898C8.88016 11.5166 8.74349 12.1752 8.72124 12.859C8.72079 12.8739 8.71856 12.8886 8.71678 12.9073C8.66893 12.8999 8.63888 12.8663 8.6046 12.8432C7.81245 12.3038 7.0214 11.7628 6.22813 11.225C6.16559 11.1825 6.15023 11.1469 6.17182 11.0721C6.47809 10.0197 7.00404 9.09493 7.77305 8.31257C8.48508 7.58807 9.32576 7.07481 10.3004 6.77922C11.0227 6.5602 11.757 6.4251 12.5124 6.40729C13.7925 6.37702 15.0164 6.62052 16.1812 7.15494C16.2339 7.1792 16.2851 7.20657 16.3501 7.23929L16.3503 7.23862Z" fill="#FEFEFE"/>
<path d="M19.6748 5.84785C19.6877 5.83027 19.6993 5.81046 19.7298 5.80957C19.7349 5.84029 19.7118 5.85186 19.6942 5.86655C19.6833 5.86499 19.677 5.85854 19.6748 5.84785Z" fill="#881E50"/>
<path d="M19.6748 5.84766C19.6812 5.85389 19.6877 5.86012 19.6939 5.86635C19.6832 5.87637 19.6728 5.88616 19.6621 5.89618C19.6561 5.89017 19.6501 5.88416 19.644 5.87793C19.6543 5.86791 19.6645 5.85767 19.6748 5.84766Z" fill="#B7383E"/>
</g>
<defs>
<clipPath id="clip0_1254_3979">
<rect width="24" height="22.9428" fill="white" transform="translate(0 0.528809)"/>
</clipPath>
</defs>
</svg>
